<?xml version="1.0" encoding="utf-8"?>
<!-- Generator: Adobe Illustrator 26.0.0, SVG Export Plug-In . SVG Version: 6.00 Build 0)  -->
<svg version="1.1" xmlns="http://www.w3.org/2000/svg" xmlns:xlink="http://www.w3.org/1999/xlink" x="0px" y="0px"
	 viewBox="0 0 500 500" style="enable-background:new 0 0 500 500;" xml:space="preserve">
<style type="text/css">
	.st0{fill:#FFCB3F;stroke:#000000;stroke-miterlimit:10;}
	.st1{fill:#FFF3C9;}
	.st2{fill:#635651;stroke:#635651;stroke-width:1.0642;stroke-miterlimit:10;}
	.st3{fill:#DAFED3;stroke:#635651;stroke-width:2;stroke-linecap:round;stroke-linejoin:round;stroke-miterlimit:10;}
	.st4{fill:#FFF7DC;stroke:#635651;stroke-width:2;stroke-linecap:round;stroke-linejoin:round;stroke-miterlimit:10;}
	.st5{fill:none;stroke:#635651;stroke-width:2;stroke-linecap:round;stroke-linejoin:round;stroke-miterlimit:10;}
	.st6{fill:#EBBAA7;stroke:#635651;stroke-width:2;stroke-linecap:round;stroke-linejoin:round;stroke-miterlimit:10;}
	.st7{fill:#FFECA3;stroke:#635651;stroke-width:2;stroke-linecap:round;stroke-linejoin:round;stroke-miterlimit:10;}
	.st8{fill:#FFA1B8;stroke:#635651;stroke-width:2;stroke-linecap:round;stroke-linejoin:round;stroke-miterlimit:10;}
	.st9{fill:#FFE1F4;stroke:#635651;stroke-width:2;stroke-linecap:round;stroke-linejoin:round;stroke-miterlimit:10;}
	.st10{fill:#B29A93;stroke:#635651;stroke-width:2;stroke-linecap:round;stroke-linejoin:round;stroke-miterlimit:10;}
	.st11{fill:#FFE48A;stroke:#635651;stroke-width:2;stroke-linecap:round;stroke-linejoin:round;stroke-miterlimit:10;}
	.st12{fill:#FFF7DC;stroke:#635651;stroke-width:2;stroke-miterlimit:10;}
	.st13{fill:#DAFED3;stroke:#635651;stroke-width:2;stroke-miterlimit:10;}
	.st14{fill:#EFEFEF;stroke:#635651;stroke-width:2;stroke-miterlimit:10;}
	.st15{fill:#FFA1B8;stroke:#635651;stroke-width:2;stroke-miterlimit:10;}
	.st16{fill:#FFECA3;stroke:#635651;stroke-width:2;stroke-miterlimit:10;}
	.st17{fill:none;stroke:#635651;stroke-width:2;stroke-miterlimit:10;}
	.st18{fill:#FFF3C4;stroke:#635651;stroke-width:2;stroke-linecap:round;stroke-linejoin:round;stroke-miterlimit:10;}
	.st19{fill:#FFE685;stroke:#635651;stroke-width:2;stroke-linecap:round;stroke-linejoin:round;stroke-miterlimit:10;}
	.st20{fill:#FFF9F0;stroke:#635651;stroke-width:2;stroke-linecap:round;stroke-linejoin:round;stroke-miterlimit:10;}
	.st21{fill:#F0BEAB;stroke:#635651;stroke-width:2;stroke-linecap:round;stroke-linejoin:round;stroke-miterlimit:10;}
	.st22{fill:#FFEFE8;stroke:#635651;stroke-width:2;stroke-linecap:round;stroke-linejoin:round;stroke-miterlimit:10;}
	.st23{fill:#FFECCF;stroke:#635651;stroke-width:2;stroke-miterlimit:10;}
	.st24{fill:#FFFFFF;stroke:#635651;stroke-width:2;stroke-miterlimit:10;}
	.st25{fill:#FFECA3;stroke:#635651;stroke-width:2;stroke-miterlimit:10.0002;}
	.st26{fill:#FFECA3;stroke:#635651;stroke-width:2;stroke-miterlimit:9.9999;}
	.st27{fill:#FFE1F4;stroke:#635651;stroke-width:2;stroke-miterlimit:10;}
</style>
<g id="Слой_2">
	<path class="st0" d="M462,238.4c0,47.8-17.2,90.4-44,117.5c-8.9,55.4-65.2,98-133.4,98c-29.5,0-56.7-8-78.9-21.5
		c-6.7,2.5-14.3,4-22.3,4c-13.8,0-26.3-4.2-35.2-11c-4.1,0.7-8.2,1.1-12.4,1.1C87.3,426.6,48,377,48,315.8c0-24.4,6.3-47,16.9-65.3
		C54.4,241.2,48,228.6,48,214.7c0-18.3,11.1-34.3,27.8-43.5c-0.3-2.9-0.4-5.8-0.4-8.8c0-52.4,44.1-94.9,98.6-94.9
		c3.1,0,6.1,0.1,9.1,0.4c10.7-9.4,35.4-16,64.2-16c38.5,0,69.8,11.8,69.8,26.4c0,0.6-0.1,1.3-0.2,1.9c6.3-5.4,13.5-8.5,21.3-8.5
		c12.4,0,23.5,7.9,31.4,20.5C422.2,105.3,462,165.8,462,238.4z"/>
</g>
<g id="Layer_1">
	<g>
		<path class="st1" d="M256.2,113.2c-0.7,3.2,0.1,7.1,4.5,11.1c10.4,9.4,50.8,23,82.6,0c3.3-2.4,4.9-6.8,3.5-11.1
			c4.4-0.3,5.9-2.3,5.7-4.3c-0.2-2.4-4.7,0.1-5.5-1.8c-0.4-1,2.4-2.1,3.5-2.7c3.5-1.6,0.5-5.7-3.3-3.9c-1.9,0.9-1.6-0.5-1.6-0.5
			c0.9-1.7,1.9-3.7-0.3-5c-2-1.2-6.8-3.6-11.6,1.4c-0.7-3.9-5-5.3-7.2-2.7c-3,3.6-5.2,8.5-8.2,4.4c-4.4-6.9-8.4-2.2-9-1.2
			c-1.1,2.2-2.8,6.6-5.3,2.7c-4.3-6.9-7.4-5.2-8.9-3.7c-1.1,1.1-4,6.1-6.1,2.7c-1.4-2.3-2.9-5.3-5.4-5.3c-3.5,0-4.7,4.9-6.3,4.7
			c-2.5-0.4-2.6-4.8-5.5-4.8c-2,0.2-3,1.2-3.5,2.2c-4.5-3.8-8.7-1.6-10.6-0.5c-2.2,1.3-1.2,3.3-0.3,5c0,0,0.3,1.4-1.6,0.5
			c-3.8-1.8-6.8,2.3-3.3,3.9c1.1,0.5,3.9,1.7,3.5,2.7c-0.9,1.9-5.3-0.6-5.5,1.8C250.5,110.9,251.9,112.9,256.2,113.2z M338.8,101.8
			c-1.4-1.5-3.2-2.7-5.1-3c0,0,0-0.1,0-0.1C336.1,99.2,337.7,100.4,338.8,101.8z"/>
		<path class="st1" d="M433.3,220.1l-12.7-6.5c-0.5-0.2-1-0.2-1.5,0c-0.5,0.2-0.8,0.7-0.9,1.2l-4.1,19.4c-1.9-0.9-4-1.5-6.2-1.8
			c-0.6-0.1-1.3-0.1-2-0.1h-1c-10.5,0-19,8.5-19,19v4.6h-2.1v5h2.1l5.6,51.2h27.8l5.6-51.2h2.1v-5h-2.1v-4.6c0-6.3-3-11.8-7.7-15.3
			l3.9-18.4l10.8,5.5c0.8,0.4,1.9,0.1,2.3-0.7C434.5,221.5,434.1,220.5,433.3,220.1z"/>
		<path class="st1" d="M185,133.4h50.4c2.6,0,4.6-2.2,4.6-4.9v-2.9c-3,0-3,3.8-6,3.8s-3-3.8-6-3.8c-3,0-3,3.8-6,3.8
			c-3,0-3-3.8-6-3.8c-3,0-3,3.8-6,3.8c-3,0-3-3.8-6-3.8c-3,0-3,3.8-6,3.8c-3,0-3-3.8-6-3.8c-3,0-3,3.8-6,3.8c-3,0-3-3.8-6-3.8v2.9
			C180.3,131.1,182.4,133.4,185,133.4z"/>
		<path class="st1" d="M183.2,117.1h54c1.5,0,2.8-1.2,2.8-2.7s-1.2-2.7-2.8-2.7h-54c-1.5,0-2.8,1.2-2.8,2.7S181.7,117.1,183.2,117.1
			z"/>
		<path class="st1" d="M181.5,122.1h57.4c0.6,0,1.1-0.5,1.1-1.1c0-0.6-0.5-1.1-1.1-1.1h-57.4c-0.6,0-1.1,0.5-1.1,1.1
			S180.9,122.1,181.5,122.1z"/>
		<path class="st1" d="M240.1,104.7c0-14.5-11.7-26.2-26.2-26.2h-7.2c-14.5,0-26.2,11.7-26.2,26.2v3.4H240L240.1,104.7L240.1,104.7z
			"/>
		<path class="st1" d="M182.6,136.6h-2.1v3.4c0,14.5,11.7,26.2,26.2,26.2h7.2c14.5,0,26.2-11.7,26.2-26.2v-3.4h-43.6H182.6z"/>
		<path class="st1" d="M93.7,202.7c5.6,14.4,19.6,24.5,36,24.5c13,0,24.6-6.4,31.6-16.3c2-2.8,3.6-5.9,4.8-9.1
			c1.5-4.1,2.3-8.6,2.3-13.2c0-3.6-0.5-7-1.4-10.3c-0.3-1-0.6-1.9-0.9-2.9c-5.4-14.9-19.6-25.5-36.4-25.5s-31,10.6-36.3,25.5
			c-0.4,1.1-0.8,2.2-1,3.4c-0.8,3.1-1.3,6.4-1.3,9.8c0,4.6,0.8,9.1,2.3,13.2C93.4,202.1,93.6,202.4,93.7,202.7z"/>
		<path class="st1" d="M298.1,411.6c-0.7,0-1.4,0.1-2,0.4l-1.5-3.6l-1.5-3.6l-4.3-10.3l-4.8-11.5l-5.8-14.1l-1.6-3.9l-2.9-7l0,0
			l-6.2-15l-4.9-11.8l-12.4,30l-1.7,4.1l-3.7,8.9l-6.8,16.4l-8.9,21.5c0,0-0.1,0-0.1,0c-0.6-0.2-1.3-0.4-1.9-0.4
			c-2.1,0-4.1,1.3-5,3.4c-1.1,2.7,0.3,5.8,3,6.9c12.9,5,25.6,7.5,38,7.5c12.5,0,24.8-2.5,36.8-7.5c2.7-1.1,4-4.2,2.9-7
			C302.2,412.8,300.2,411.6,298.1,411.6z"/>
		<path class="st1" d="M212.4,318.1l-7.6-0.7l-1.2,21.4l-0.2,0l1.6-31.1l-8-0.7l-0.6,16.2l0.6-24.5l-8.8-0.2l0,2.1h-5l0.4,6
			l-2.9,0.1l0.1,5.2h-2.5l-0.5-7.6h-5.4l-0.1-1.5l-9.5,0.6l0.1,1.9l-6.6,0.1l0.3,5.6l-4.1,0.4l1,10.6l-4.3,0.4l1.6,16.8l-6.2,0.5
			l11.5,60.6c3,0.6,6,1.2,8.9,1.6c3.3,0.5,6.6,0.8,9.9,1c4,0.2,8,0.2,12,0c2.4-0.1,4.9-0.4,7.3-0.7c0.1,0,0.3,0,0.4-0.1
			c3.4-0.5,6.7-1.1,10-1.9l11.5-60.6l-5-0.4L212.4,318.1z"/>
		<path class="st1" d="M392.5,213.9l9.5-48.4l-5.2,4.5c6.5-10.9,2.5-17.9,3.1-25.4c0.1-1.1,0.2-2.1,0.5-3.2c0.1-0.5,0.5-1.3,1-2.1
			c0.9-1.5,2.1-3.2,2.1-3.2s4.6,2.9,6.2-1.4c1.4-3.7-2.8-3.7-4.6-3.7c-1.6-0.1-1.5-0.4-2.4-1.8c-0.8-1.6-2.8-3.5-4.6-1.5
			c-3.1,3.3,1.8,6.2,1.8,6.2s-1.4,3-2.5,4.5c0,0,0,0,0,0c-0.2,0.2-0.4,0.4-0.6,0.6c-4.1,3.1-11.3,4.5-17.8,7.1
			c-3.1-5.6-9-9.4-15.9-9.4c-9.5,0-17.2,7.2-18,16.5c-2.1-0.2-4.2-0.4-6.1-1c-1-0.3-2-0.7-2.9-1.3c-0.2-0.1-0.5-0.4-0.8-0.7
			c-0.2-0.2-0.5-0.5-0.8-0.8c-1.1-1.3-2.3-2.8-2.3-2.8s4.7-4.3,1.2-6.8c-3-2.3-4.1,1.5-4.6,3.2c-0.5,1.4-2.8,3.3-4.3,3.7
			c-1.7,0.3-3.1,2.1-1.8,4.2c2.2,3.7,6.5-1.6,6.5-1.6s2.4,2.1,3.4,3.5l0,0c0.2,0.2,0.3,0.5,0.4,0.7c0,0,0,0,0,0.1
			c0.4,1,0.6,2.1,0.7,3.1c0,0,0,0,0,0c0.5,5-1.6,10.3-0.6,15.6l-8-6.8l9.5,48.4c2.2,0.5,4.5,0.9,6.7,1.3c2.6,0.4,5.2,0.8,7.8,1
			c2.3,0.2,4.6,0.4,6.9,0.5c2.5,0.1,5,0.2,7.5,0.1c2.5,0,4.9-0.1,7.4-0.2c2.1-0.1,4.3-0.3,6.4-0.5c2.5-0.2,5-0.6,7.5-0.9
			C387.5,214.8,390,214.3,392.5,213.9z"/>
		<path class="st1" d="M131,260.7c-1.8-8.3-9.2-14.6-18.1-14.6c-10.2,0-18.5,8.3-18.5,18.5c0,0.4,0,0.8,0.1,1.3
			c-5.1,1.1-9,5.7-9,11.2c0,3.6,1.6,6.8,4.2,8.9l0.3,1.1l3.1,11.3l1,3.7h0l2.7,10.1v0l1.3,4.9l2.4,8.9l1.7,6.1v0l2.1,7.7l2,7.3l0,0
			l1.2,4.4c0,0,0.2,0.8,0.7,1.9c0.8,1.8,2.3,4.3,4.5,4.3c2.2,0,3.5-1.9,4.3-3.6c0.6-1.4,0.9-2.6,0.9-2.6l2.1-7.8l2.8-10.5l1.1-3.9
			l0,0l1.8-6.6l2.8-10.5l2.9-10.5l1.2-4.4l0.4-1.4l0,0l1.3-4.7l1.5-5.4l0.4-1.4c-0.1,0-0.3,0-0.4,0c-0.6,0.1-1.3,0.2-1.9,0.3
			c0.7-0.2,1.3-0.5,1.9-0.9c3.7-2.2,6.2-6.2,6.2-10.8C141.9,266.8,137.2,261.5,131,260.7z M115.6,303.2v-11.6v13.5v-1.2V303.2z"/>
		<path class="st1" d="M186.1,198.2c2.6,0,4.9-1.2,6.5-3c3.6-4.2,10.5-4.2,10.5-4.2h38.7c0.1,1.3,0.5,2.6,0.9,3.7c0,0,0,0,0,0
			c2,4.8,6.8,8.2,12.4,8.2H274c0.5,0,1-0.3,1.3-0.7c-1.2,2.9-3,5.9-5.5,9c-2.7,3.3-2.1,8.2,1.2,10.9c3.3,2.7,8.2,2.1,10.9-1.2
			c1.9-2.3,3.5-4.7,4.9-7.2h0h0c2.2-3.8,3.8-7.8,5-11.9h0h0c1.7-6.4,2.1-13,1.1-19.5c-0.3-1.8-0.7-3.5-1.1-5.2h0h0
			c-1.2-4.6-3.1-8.8-5.5-12.3h0h0c-2.2-3.4-4.9-6.2-7.9-8.1c-3.5-2.4-8.3-1.4-10.7,2.2c-0.9,1.3-1.3,2.8-1.3,4.3
			c0,2.5,1.2,4.9,3.5,6.4c1.5,1,3.8,3.6,5.5,7.4c-0.3-0.4-0.8-0.7-1.4-0.7h-18.9c-5.6,0-10.3,3.4-12.4,8.2c0,0,0,0,0,0.1
			c-0.4,1-0.7,2-0.9,3.1h-38.7c0,0-5.6,0.4-10.5-3.6c-0.2-0.3-0.5-0.5-0.7-0.7c-1.5-1.4-3.6-2.2-5.8-2.2c-4.8,0-8.6,3.9-8.6,8.6
			C177.5,194.4,181.3,198.2,186.1,198.2z M245.4,186.7h24.2c0.9,0,1.6-0.7,1.6-1.6c0-0.9-0.7-1.6-1.6-1.6H247c1.9-2.4,4.8-4,8.1-4
			H274c0.9,0,1.6-0.7,1.6-1.6c0-0.1,0-0.3-0.1-0.4c0.9,2.1,1.6,4.5,2.1,7.3c0.7,4.4,0.6,10.4-2,17c0-0.1,0-0.2,0-0.3
			c0-0.9-0.7-1.6-1.6-1.6h-18.9c-3.3,0-6.2-1.6-8.1-4h22.6c0.9,0,1.6-0.7,1.6-1.6c0-0.9-0.7-1.6-1.6-1.6h-24.2
			c-0.3-0.9-0.4-1.9-0.4-2.9C244.9,188.6,245.1,187.6,245.4,186.7z"/>
		<path class="st1" d="M309.8,163.4c0.4,0.1,0.8,0.2,1.3,0.2L309.8,163.4z"/>
		<path class="st1" d="M301.5,162.2l-8.4-1.2c2,0.6,2.4,2.5,5.2,2.5C299.8,163.6,300.6,162.9,301.5,162.2z"/>
		<path class="st1" d="M304.7,160.9c-1.6,0-2.4,0.7-3.2,1.4l8.4,1.2C307.8,162.8,307.4,160.9,304.7,160.9z"/>
		<path class="st1" d="M293.1,161.1c-0.4-0.1-0.8-0.2-1.3-0.2L293.1,161.1z"/>
		<path class="st1" d="M307.4,180.8l8.4,1.2c-2-0.6-2.4-2.5-5.2-2.5C309,179.5,308.2,180.2,307.4,180.8z"/>
		<path class="st1" d="M299,179.7c-0.4-0.1-0.8-0.2-1.3-0.2L299,179.7z"/>
		<path class="st1" d="M304.2,182.2c1.6,0,2.4-0.7,3.2-1.4l-8.4-1.2C301,180.3,301.4,182.2,304.2,182.2z"/>
		<path class="st1" d="M315.8,182c0.4,0.1,0.8,0.2,1.3,0.2L315.8,182z"/>
		<path class="st1" d="M315.8,201.6c0.4,0.1,0.8,0.2,1.3,0.2L315.8,201.6z"/>
		<path class="st1" d="M307.4,200.4l8.4,1.2c-2-0.6-2.4-2.5-5.2-2.5C309,199.1,308.2,199.8,307.4,200.4z"/>
		<path class="st1" d="M299,199.3c-0.4-0.1-0.8-0.2-1.3-0.2L299,199.3z"/>
		<path class="st1" d="M304.2,201.8c1.6,0,2.4-0.7,3.2-1.4l-8.4-1.2C301,199.9,301.4,201.8,304.2,201.8z"/>
		<path class="st1" d="M299.5,218.3c1.6,0,2.4-0.7,3.2-1.4l-8.4-1.2C296.3,216.4,296.8,218.3,299.5,218.3z"/>
		<path class="st1" d="M294.3,215.8c-0.4-0.1-0.8-0.2-1.3-0.2L294.3,215.8z"/>
		<path class="st1" d="M302.7,217l8.4,1.2c-2-0.6-2.4-2.5-5.2-2.5C304.3,215.6,303.5,216.3,302.7,217z"/>
		<path class="st1" d="M311.1,218.1c0.4,0.1,0.8,0.2,1.3,0.2L311.1,218.1z"/>
		<path class="st1" d="M358,302.6h-9.5V285l11.2,2.8c1.3,0.3,2.5-0.5,2.9-1.7c0.3-1.3-0.5-2.5-1.7-2.9l-14.1-3.5
			c-0.7-0.2-1.5,0-2,0.4c-0.6,0.4-0.9,1.1-0.9,1.9v20.6h-9.5c-7.6,0-13.8,6.2-13.8,13.8h-3.7v9.5h5l2.7,20.9l2.2,17.4l0,0l3.1,24.1
			l1.3,10.1c7.9,2,15.7,2.4,23.6,1.4c2.7-0.3,5.4-0.8,8-1.4l1.7-13.4l1.6-12.4l2.2-17.4l1.5-11.8l2.2-17.4h5.6v-9.5h-5.6
			C371.8,308.8,365.6,302.6,358,302.6z"/>
		<path class="st1" d="M293.2,310.1c-3.8-2.2-7.8-3.8-11.9-5v0v0c-6.4-1.7-13-2.1-19.5-1.1c-1.8,0.3-3.5,0.7-5.2,1.1v0v0
			c-4.6,1.2-8.8,3.1-12.3,5.5v0v0c-3.4,2.2-6.2,4.9-8.1,7.9c-2.4,3.5-1.4,8.3,2.2,10.7c1.3,0.9,2.8,1.3,4.3,1.3
			c2.5,0,4.9-1.2,6.4-3.5c1.6-2.4,7-6.5,15.2-7.8c6.5-1,16.3-0.5,26.6,7.8c3.3,2.7,8.2,2.1,10.9-1.2c2.7-3.3,2.1-8.2-1.2-10.9
			C298.1,313.2,295.7,311.6,293.2,310.1L293.2,310.1L293.2,310.1z"/>
		<path class="st1" d="M243.1,298.8c0-1.6-0.7-2.4-1.4-3.2l-1.2,8.4C241.2,301.9,243.1,301.5,243.1,298.8z"/>
		<path class="st1" d="M240.6,303.9c-0.1,0.4-0.2,0.8-0.2,1.3L240.6,303.9z"/>
		<path class="st1" d="M242.9,287.1c0.1-0.4,0.2-0.8,0.2-1.3L242.9,287.1z"/>
		<path class="st1" d="M240.4,292.3c0,1.6,0.7,2.4,1.4,3.2l1.2-8.4C242.3,289.1,240.4,289.6,240.4,292.3z"/>
		<path class="st1" d="M261.7,292.8c0-1.6-0.7-2.4-1.4-3.2l-1.2,8.4C259.8,296,261.7,295.5,261.7,292.8z"/>
		<path class="st1" d="M259.2,298c-0.1,0.4-0.2,0.8-0.2,1.3L259.2,298z"/>
		<path class="st1" d="M259,286.4c0,1.6,0.7,2.4,1.4,3.2l1.2-8.4C260.9,283.2,259,283.6,259,286.4z"/>
		<path class="st1" d="M261.5,281.2c0.1-0.4,0.2-0.8,0.2-1.3L261.5,281.2z"/>
		<path class="st1" d="M278.6,286.4c0,1.6,0.7,2.4,1.4,3.2l1.2-8.4C280.5,283.2,278.6,283.6,278.6,286.4z"/>
		<path class="st1" d="M281.3,292.8c0-1.6-0.7-2.4-1.4-3.2l-1.2,8.4C279.4,296,281.3,295.5,281.3,292.8z"/>
		<path class="st1" d="M278.8,298c-0.1,0.4-0.2,0.8-0.2,1.3L278.8,298z"/>
		<path class="st1" d="M281.1,281.2c0.1-0.4,0.2-0.8,0.2-1.3L281.1,281.2z"/>
		<path class="st1" d="M297.8,297.5c0-1.6-0.7-2.4-1.4-3.2l-1.2,8.4C295.9,300.6,297.8,300.2,297.8,297.5z"/>
		<path class="st1" d="M295.3,302.6c-0.1,0.4-0.2,0.8-0.2,1.3L295.3,302.6z"/>
		<path class="st1" d="M295.1,291c0,1.6,0.7,2.4,1.4,3.2l1.2-8.4C297,287.9,295.1,288.3,295.1,291z"/>
		<path class="st1" d="M297.6,285.9c0.1-0.4,0.2-0.8,0.2-1.3L297.6,285.9z"/>
	</g>
	<g>
		<g>
			<path class="st2" d="M152.5,236.6v12.4h8.3v8.3h-8.3v12.5h-8.3v-41.5h18.2v8.3L152.5,236.6L152.5,236.6z"/>
			<path class="st2" d="M180.9,233.3c2.9,0,5.3,1,7.3,3s3,4.5,3,7.3v26.2H183v-8.3h-4.1v8.3h-8.3v-26.2c0-2.9,1-5.3,3-7.3
				C175.6,234.3,178.1,233.3,180.9,233.3z M183,253.2v-9.6c0-0.6-0.2-1.1-0.6-1.5c-0.4-0.4-0.9-0.6-1.4-0.6c-0.6,0-1.1,0.2-1.5,0.6
				s-0.6,0.9-0.6,1.5v9.6L183,253.2L183,253.2z"/>
			<path class="st2" d="M211,233.3c2.8,0.1,5.1,1.1,7.1,3.1c1.9,2,2.9,4.4,2.9,7.2v4.2h-8.3v-4.2c0-0.6-0.2-1-0.6-1.4
				c-0.4-0.4-0.9-0.6-1.5-0.6c-0.5,0-0.9,0.1-1.3,0.5c-0.1,0-0.1,0.1-0.1,0.1h0c0,0-0.1,0.1-0.1,0.1h0c0,0.1-0.1,0.1-0.1,0.1v0h0
				c0,0.1-0.1,0.1-0.1,0.1c0,0,0,0,0,0c0,0.1-0.1,0.1-0.1,0.1l0,0.1l0,0.1l0,0.1l0,0.1c0,0,0,0.1,0,0.1v0.1c0,0.1,0,0.1,0,0.2v3.4
				c0,0.6,0.2,1.1,0.6,1.5c0.4,0.4,0.9,0.6,1.4,0.6l0.4,0c2.8,0.1,5.1,1.1,7.1,3.1c1.9,2,2.9,4.4,2.9,7.2c0,2.9-1,5.3-3,7.3
				c-2,2-4.5,3-7.3,3h-10.4v-8.3h10.4c0.6,0,1.1-0.2,1.5-0.6c0.4-0.4,0.6-0.9,0.6-1.5c0-0.6-0.2-1.1-0.6-1.5
				c-0.4-0.4-0.9-0.6-1.5-0.6h-0.4c-2.8-0.1-5.1-1.2-7-3.1c-1.9-2-2.9-4.4-2.9-7.2v-3.4c0-2.9,1-5.3,3-7.3c2-2,4.4-3,7.3-3H211z"/>
			<path class="st2" d="M249.1,242.5h-6.3v27.3h-8.3v-27.3h-6.2v-8.3h20.7L249.1,242.5L249.1,242.5z"/>
			<path class="st2" d="M264.3,236.6v12.4h8.3v8.3h-8.3v12.5H256v-41.5h18.2v8.3L264.3,236.6L264.3,236.6z"/>
			<path class="st2" d="M303.5,260.4c0,2.9-1,5.3-3.1,7.3c-2,2-4.4,3-7.3,3c-2.8,0-5.3-1-7.3-3c-2-2-3-4.4-3.1-7.2v-16.9
				c0-2.9,1-5.3,3.1-7.2c2-2,4.5-3,7.3-3c2.9,0,5.3,1,7.3,3c2,2,3,4.4,3.1,7.3V260.4z M295.2,243.6c0-0.6-0.2-1.1-0.6-1.5
				c-0.4-0.4-0.9-0.6-1.5-0.6c-0.6,0-1.1,0.2-1.5,0.6c-0.4,0.4-0.6,0.9-0.6,1.5v16.6c0,0.6,0.2,1.1,0.6,1.5c0.4,0.4,0.9,0.6,1.5,0.6
				c0.6,0,1.1-0.2,1.5-0.6c0.4-0.4,0.6-0.9,0.6-1.5V243.6z"/>
			<path class="st2" d="M332.9,260.4c0,2.9-1,5.3-3.1,7.3c-2,2-4.4,3-7.3,3c-2.8,0-5.3-1-7.3-3c-2-2-3-4.4-3.1-7.2v-16.9
				c0-2.9,1-5.3,3.1-7.2c2-2,4.5-3,7.3-3c2.9,0,5.3,1,7.3,3c2,2,3,4.4,3.1,7.3V260.4z M324.7,243.6c0-0.6-0.2-1.1-0.6-1.5
				c-0.4-0.4-0.9-0.6-1.5-0.6c-0.6,0-1.1,0.2-1.5,0.6c-0.4,0.4-0.6,0.9-0.6,1.5v16.6c0,0.6,0.2,1.1,0.6,1.5c0.4,0.4,0.9,0.6,1.5,0.6
				c0.6,0,1.1-0.2,1.5-0.6c0.4-0.4,0.6-0.9,0.6-1.5V243.6z"/>
			<path class="st2" d="M362.1,259.5c0,2.9-1,5.3-3,7.3c-2,2-4.4,3-7.3,3h-10.4v-35.7h10.4c2.9,0,5.3,1,7.3,3c2,2,3,4.4,3,7.3V259.5
				z M353.8,244.5c0-0.6-0.2-1-0.6-1.4c-0.4-0.4-0.9-0.6-1.5-0.6h-2.1v19.1h2.1c0.6,0,1-0.2,1.5-0.6c0.4-0.4,0.6-0.9,0.6-1.5V244.5z
				"/>
		</g>
		<g>
			<g>
				<path class="st3" d="M264.3,88.3c-0.8,0.3-1.5,0.6-2.1,1c0,0,0,0,0,0c-2,1.3-4,4.4-4.3,6.6c-1.2,0.2-2.4,0.8-3.3,1.7
					c-1.4,1.3-2.7,3.3-3.3,5.7c-4.6-0.4-6.1-2.4-5.9-4.6c0.2-2.5,5,0.1,5.9-1.9c0.5-1.1-2.5-2.3-3.7-2.8c-3.7-1.7-0.5-6.1,3.5-4.2
					c2,1,1.7-0.5,1.7-0.5c-1-1.8-2-3.9,0.3-5.3c2-1.2,6.5-3.5,11.3,0.5v0C263.5,86.3,264.3,88.3,264.3,88.3z"/>
				<path class="st4" d="M344,115.1c-33.9,24.5-76.9,10-87.9,0c-4.7-4.2-5.6-8.4-4.8-11.8c0.5-2.4,1.9-4.4,3.3-5.7
					c1-0.9,2.1-1.4,3.3-1.7c4.9-0.9,11,2.8,11,2.8c13,5.9,35,10.6,62.9-1.3c2.4-1,6.2-1.8,9.7-0.6c2,0.7,4,2.1,5.3,4.5
					c0.4,0.7,0.7,1.3,0.9,2C349.2,107.9,347.5,112.6,344,115.1z"/>
				<path class="st5" d="M300.9,124L300.9,124c-2.6,0-5.2-0.1-7.7-0.4"/>
				<path class="st5" d="M285.9,122.6c-12.6-2.3-22.6-7.2-26.7-10.9"/>
				<path class="st6" d="M341.5,96.9c-3.5-1.2-7.3-0.4-9.7,0.6c-27.9,11.8-49.9,7.2-62.9,1.3c0,0-6.1-3.8-11-2.8
					c0.3-2.3,2.3-5.3,4.3-6.6c0,0,0,0,0,0c0.6-0.3,8.9-4.3,8.7,3.3c-0.1,6,7.4,0.8,9.5,0.2c2.1-0.6,5-2.2,7.7,3.8
					c2.7,6,8.4,5.4,13.4,1.3c3.4-2.8,17.5-9,16-2.2c-0.9,4.1,5,4.9,10.3-4.5c1.6-2.8,3.7-3.6,5.9-3.2c2,0.3,4,1.6,5.5,3.2
					C340.5,93,341.2,95.2,341.5,96.9z"/>
				<path class="st3" d="M333.7,88c-0.7-0.1-1.4-0.2-2.3-0.2c-9.4,0-14.1,6.7-31.8,6.4c-0.4,0-0.8,0-1.2,0
					c-16.8,0-21.5-6.4-30.6-6.4c-1.4,0-2.5,0.2-3.5,0.5c0,0-0.7-2,0-3.7v0c0.5-1.1,1.5-2.1,3.7-2.3c3-0.1,3.1,4.7,5.8,5.1
					c1.7,0.2,3-5,6.7-5c2.7,0,4.2,3.2,5.7,5.7c2.2,3.6,5.3-1.8,6.5-2.9c1.6-1.6,4.9-3.4,9.5,4c2.6,4.1,4.4-0.6,5.6-2.9
					c0.6-1.1,4.9-6.1,9.5,1.2c3.1,4.3,5.5-0.9,8.7-4.7c2.4-2.8,7-1.3,7.7,2.9C333.8,86.3,333.8,87.1,333.7,88z"/>
				<path class="st7" d="M333.7,88C333.7,88,333.7,88,333.7,88c-2.2-0.3-4.3,0.5-5.9,3.3c-5.3,9.4-11.2,8.6-10.3,4.5
					c1.5-6.8-12.6-0.6-16,2.2c-5,4.1-10.7,4.7-13.4-1.3c-2.7-6-5.6-4.4-7.7-3.8c-2.1,0.6-9.6,5.7-9.5-0.2c0.2-7.6-8.1-3.6-8.7-3.3
					c0.6-0.4,1.3-0.8,2.1-1c1-0.3,2.2-0.5,3.5-0.5c9.2,0,13.9,6.4,30.6,6.4c0.4,0,0.8,0,1.2,0c17.7,0.3,22.4-6.4,31.8-6.4
					C332.2,87.8,333,87.8,333.7,88z"/>
				<path class="st3" d="M347.7,103.4c-0.2-0.7-0.5-1.3-0.9-2c-1.4-2.4-3.3-3.8-5.3-4.5c-0.3-1.7-0.9-3.8-2.4-5.6
					c-1.2-1.5-2.9-2.8-5.4-3.2c0.1-0.9,0.1-1.7,0-2.4c5.1-5.4,10.2-2.8,12.3-1.5c2.3,1.4,1.3,3.5,0.3,5.3c0,0-0.3,1.5,1.7,0.5
					c4.1-1.9,7.2,2.5,3.5,4.2c-1.2,0.6-4.2,1.8-3.7,2.8c0.9,2.1,5.6-0.6,5.9,1.9C353.9,100.9,352.3,103,347.7,103.4z"/>
			</g>
			<g>
				<polygon class="st8" points="430.6,260.4 424.6,314.8 395.1,314.8 389.1,260.4 				"/>
				<line class="st5" x1="400" y1="309.5" x2="399.2" y2="299.1"/>
				<line class="st5" x1="398.6" y1="293.1" x2="395.4" y2="271"/>
				<rect x="386.9" y="255.1" class="st7" width="46" height="5.3"/>
				<path class="st9" d="M430.6,250.2v4.9h-36.2v-4.9c0-10.4,7.9-19,18.1-20.1c2.4,0.2,4.6,0.9,6.6,1.9l0,0l3.2,1.9
					C427.4,237.6,430.6,243.5,430.6,250.2z"/>
				<path class="st5" d="M412.5,230.1c-10.2,1.1-18.1,9.6-18.1,20.1v4.9h-5.4v-4.9c0-11.2,9-20.2,20.2-20.2h1.1
					C411.1,230,411.9,230,412.5,230.1z"/>
				<path class="st7" d="M440.4,219.5c-0.5,0.9-1.5,1.2-2.4,0.8l-11.4-5.9l-4.1,19.6l-3.2-1.9l0,0l4.4-20.6c0.1-0.6,0.5-1,1-1.2
					c0.5-0.2,1.1-0.2,1.6,0l13.5,6.9C440.5,217.5,440.9,218.6,440.4,219.5z"/>
			</g>
			<g>
				<g>
					<path class="st3" d="M170.4,119.5L170.4,119.5c0,2.9,2.2,5.2,4.9,5.2H229c2.7,0,4.9-2.3,4.9-5.2l0,0v-3.1
						c-3.2,0-3.2,4.1-6.4,4.1c-3.2,0-3.2-4.1-6.4-4.1c-3.2,0-3.2,4.1-6.4,4.1c-3.2,0-3.2-4.1-6.4-4.1c-3.2,0-3.2,4.1-6.4,4.1
						c-3.2,0-3.2-4.1-6.4-4.1c-3.2,0-3.2,4.1-6.3,4.1s-3.2-4.1-6.4-4.1c-3.2,0-3.2,4.1-6.4,4.1c-3.2,0-3.2-4.1-6.4-4.1l0,0
						L170.4,119.5L170.4,119.5z"/>
					<path class="st5" d="M233.9,105.8"/>
					<path class="st5" d="M233.9,105.8"/>
					<path class="st5" d="M233.9,105.8"/>
					<path class="st8" d="M233.9,104.6c0,1.6-1.3,2.9-2.9,2.9h-57.5c-1.6,0-2.9-1.3-2.9-2.9c0-1.6,1.3-2.9,2.9-2.9H231
						C232.6,101.7,233.9,103,233.9,104.6z"/>
					<path class="st10" d="M233.9,111.7c0,0.7-0.5,1.2-1.1,1.2h-61.1c-0.6,0-1.1-0.5-1.1-1.2s0.5-1.2,1.1-1.2h61.1
						C233.4,110.5,233.9,111,233.9,111.7z"/>
					<g>
						<path class="st11" d="M234,94.2c0-15.4-12.5-27.9-27.9-27.9h-7.7c-15.4,0-27.9,12.5-27.9,27.9v3.7H234V94.2z"/>
						<g>
							<line class="st5" x1="176.8" y1="91.7" x2="180.7" y2="87.4"/>
							<line class="st5" x1="212.9" y1="86.1" x2="216.8" y2="81.9"/>
							<line class="st5" x1="193.4" y1="93.7" x2="189.2" y2="89.8"/>
							<line class="st5" x1="188.1" y1="81.9" x2="182.4" y2="80.7"/>
							<line class="st5" x1="221.6" y1="77" x2="216" y2="75.8"/>
							<line class="st5" x1="222.4" y1="92.8" x2="216.8" y2="91.7"/>
							<line class="st5" x1="192.4" y1="76.4" x2="195.9" y2="71.8"/>
							<line class="st5" x1="194.7" y1="81.1" x2="198.6" y2="85.4"/>
							<line class="st5" x1="206.4" y1="87.3" x2="203.5" y2="92.2"/>
							<line class="st5" x1="202.4" y1="77.7" x2="207.6" y2="75.2"/>
						</g>
					</g>
					<g>
						<path class="st11" d="M187.6,128.2H234v3.6c0,15.4-12.5,27.9-27.9,27.9h-7.7c-15.4,0-27.9-12.5-27.9-27.9v-3.6h2.3H187.6z"/>
						<g>
							<line class="st5" x1="212.9" y1="140" x2="216.8" y2="144.3"/>
							<line class="st5" x1="193.4" y1="132.5" x2="189.2" y2="136.4"/>
							<line class="st5" x1="188.1" y1="144.3" x2="182.4" y2="145.4"/>
							<line class="st5" x1="221.6" y1="149.1" x2="216" y2="150.3"/>
							<line class="st5" x1="222.4" y1="133.3" x2="216.8" y2="134.4"/>
							<line class="st5" x1="192.4" y1="149.7" x2="195.9" y2="154.3"/>
							<line class="st5" x1="194.7" y1="145" x2="198.6" y2="140.8"/>
							<line class="st5" x1="206.4" y1="138.8" x2="203.5" y2="133.9"/>
							<line class="st5" x1="202.4" y1="148.5" x2="207.6" y2="151"/>
						</g>
					</g>
				</g>
			</g>
			<g>
				<g>
					<path class="st5" d="M127.1,183.6c0,1.9-0.5,3.7-1.4,5.2c-1.8,3.2-5.3,5.4-9.2,5.4c-4.3,0-8-2.5-9.6-6.2c-0.6-1.3-1-2.8-1-4.4
						c0-1.9,0.5-3.7,1.4-5.2c1.8-3.2,5.3-5.4,9.2-5.4s7.4,2.2,9.2,5.4C126.6,179.9,127.1,181.6,127.1,183.6z"/>
					<g>
						<path class="st4" d="M150.1,207.3c-7.4,10.5-19.7,17.4-33.6,17.4c-17.4,0-32.3-10.8-38.3-26.1c1,0.6,2.2,1,3.4,1
							c1.8,0,3.5-0.8,4.6-2c1-1.1,1.6-2.5,1.6-4v-10.7c0-1.8,1.6-3.3,3.5-3.3c1.9,0,3.5,1.5,3.5,3.3v2.9c0,3.3,2.8,6,6.2,6
							c2.6,0,4.9-1.6,5.8-3.8c1.7,3.7,5.4,6.2,9.6,6.2c3.9,0,7.4-2.2,9.2-5.4v12.6c0,3.3,2.8,6,6.3,6c3.4,0,6.2-2.7,6.2-6v-14.3
							c0-1.8,1.6-3.3,3.5-3.3c1.9,0,3.5,1.5,3.5,3.3v14.3C145.2,204.3,147.3,206.7,150.1,207.3z"/>
						<path class="st8" d="M157.7,183.6c0,4.9-0.9,9.6-2.4,14c-1.3,3.5-3,6.8-5.1,9.7c-2.8-0.6-5-3-5-5.9v-14.3
							c0-1.8-1.6-3.3-3.5-3.3s-3.5,1.5-3.5,3.3v14.3c0,3.3-2.8,6-6.2,6s-6.2-2.7-6.2-6v-12.6c0.9-1.5,1.4-3.3,1.4-5.2
							s-0.5-3.7-1.4-5.2c-1.8-3.2-5.3-5.4-9.2-5.4c-3.9,0-7.4,2.2-9.2,5.4c-0.9,1.5-1.4,3.3-1.4,5.2c0,1.6,0.3,3.1,1,4.4
							c-0.9,2.2-3.2,3.8-5.8,3.8c-3.4,0-6.2-2.7-6.2-6v-2.9c0-1.8-1.6-3.3-3.5-3.3c-1.9,0-3.5,1.5-3.5,3.3v10.7c0,1.6-0.6,3-1.6,4
							c-1.1,1.2-2.8,2-4.6,2c-1.3,0-2.4-0.4-3.4-1c-0.1-0.3-0.2-0.7-0.4-1c-1.6-4.4-2.4-9.1-2.4-14c0-3.6,0.5-7.1,1.3-10.5
							c0.3-1.2,0.7-2.4,1.1-3.6c5.7-15.8,20.9-27.1,38.7-27.1s33,11.3,38.7,27.1c0.4,1,0.7,2,1,3.1
							C157.2,176.1,157.7,179.8,157.7,183.6z"/>
					</g>
				</g>
				<path class="st5" d="M88.8,204.6c2.7,3.5,6,6.5,9.7,8.7 M104,216c2.2,0.8,4.5,1.5,6.8,1.8"/>
				<line class="st5" x1="84.9" y1="169.5" x2="90.9" y2="171.6"/>
				<line class="st5" x1="135.1" y1="154.8" x2="141.1" y2="156.9"/>
				<line class="st5" x1="104.9" y1="155.9" x2="107" y2="149.9"/>
				<line class="st5" x1="137.1" y1="177.4" x2="134" y2="171.9"/>
				<line class="st5" x1="91" y1="162.2" x2="95" y2="157.2"/>
				<line class="st5" x1="125.2" y1="167.2" x2="129.1" y2="162.2"/>
				<line class="st5" x1="99.6" y1="167.6" x2="102" y2="173.5"/>
				<line class="st5" x1="80.3" y1="183.7" x2="82.1" y2="177.6"/>
				<line class="st5" x1="132.1" y1="195.2" x2="131.6" y2="188.9"/>
				<line class="st5" x1="114.2" y1="164.1" x2="108.1" y2="162.2"/>
				<line class="st5" x1="150.1" y1="169.5" x2="144" y2="167.6"/>
				<line class="st5" x1="118.5" y1="151.5" x2="124.3" y2="154.2"/>
				<line class="st5" x1="150.1" y1="177.9" x2="150" y2="184.3"/>
			</g>
			<g>
				<path class="st12" d="M228.1,423.3c0-0.1,0-0.3,0-0.4c0-1.3,1.1-2.4,2.4-2.4s2.4,1.1,2.4,2.4c0,0.6-0.3,1.2-0.7,1.7
					c5.7,1.6,11.4,2.7,17,3.3c-0.6-1.2-0.9-2.6-0.9-4.1c0-5.2,4.2-9.4,9.4-9.4c5.2,0,9.4,4.2,9.4,9.4c0,1.5-0.4,3-1,4.2
					c3.5-0.3,7-0.8,10.4-1.5c-0.2-0.4-0.4-0.8-0.4-1.2c0-1.3,1.1-2.4,2.4-2.4s2.4,1.1,2.4,2.4c0,0.1,0,0.1,0,0.2
					c4.2-1.1,8.4-2.5,12.5-4.2h0l-1.6-3.9c-0.4,0.6-1.1,0.9-1.9,0.9c-1.3,0-2.4-1.1-2.4-2.4s1.1-2.4,2.4-2.4c0.1,0,0.2,0,0.3,0
					l-4.5-11c-0.4,0.3-0.8,0.6-1.3,0.8c-2.5,0.9-5.3-0.3-6.2-2.9c-0.3-0.8-0.4-1.7-0.2-2.5c1.2,0.1,1.8,0,2.8-0.2l-3.2-5.9
					c0.9-1,2.2-1.4,3.2-1.6l-6.2-15c-0.4,0.4-1,0.6-1.6,0.6c-1.3,0-2.4-1.1-2.4-2.4c0-1.3,1-2.4,2.3-2.4l-3.1-7.4
					c-1.7,1.8-4.1,2.9-6.8,2.9c-5.2,0-9.4-4.2-9.4-9.4s4.2-9.4,9.4-9.4c0.1,0,0.1,0,0.2,0l-5.2-12.5l-13.2,31.9c1.1,0.2,2,1.2,2,2.4
					c0,1.3-1.1,2.4-2.4,2.4c-0.5,0-1-0.2-1.4-0.5l-3.9,9.5c3.6,1.4,6.1,4.8,6.1,8.8c0,5.2-4.2,9.4-9.4,9.4c-1.4,0-2.7-0.3-3.9-0.8
					l-9.5,22.9C224.4,422,226.3,422.7,228.1,423.3z M270.1,385.8c1.3,0,2.4,1.1,2.4,2.4s-1.1,2.4-2.4,2.4c-1.3,0-2.4-1.1-2.4-2.4
					S268.8,385.8,270.1,385.8z M271.3,404.1c0.7,2,3.2,5.9,3.2,5.9c0.8-0.7,1.2-1.3,1.6-1.9c0.7,0.4,1.3,0.9,1.8,1.6
					c1.5,2.2,0.9,5.2-1.4,6.7c-2.2,1.5-5.2,0.9-6.7-1.4c-0.5-0.7-0.7-1.6-0.8-2.4c1.2-0.2,1.8-0.4,2.7-0.8l-4.4-5
					C268.4,404.8,271.3,404.1,271.3,404.1z M257.4,402.1c-1.3,0-2.4-1.1-2.4-2.4s1.1-2.4,2.4-2.4c1.3,0,2.4,1.1,2.4,2.4
					C259.8,401,258.7,402.1,257.4,402.1z M252.2,379.1c-0.1-0.8,0-1.6,0.3-2.4c1-2.5,3.8-3.7,6.3-2.8c2.5,1,3.7,3.8,2.8,6.3
					c-0.3,0.8-0.8,1.5-1.5,2c-0.9-0.9-1.3-1.2-2.2-1.7l-1.5,6.5c-2.4,0.3-4.6-1.7-4.6-1.7c1.2-1.8,2.9-6.1,2.9-6.1
					C253.7,379,253,379,252.2,379.1z M238.4,407.4c0.8-0.4,1.6-0.6,2.5-0.6c0.1,1.2,0.2,1.8,0.6,2.7l5.4-3.9c2,1.4,2.3,4.3,2.3,4.3
					c-2.1,0.5-6.2,2.6-6.2,2.6c0.6,0.9,1.1,1.3,1.8,1.8c-0.4,0.7-1.1,1.2-1.8,1.6c-2.4,1.2-5.3,0.3-6.6-2
					C235.1,411.6,236.1,408.6,238.4,407.4z"/>
				<path class="st13" d="M287.7,416c0-1.3,1.1-2.4,2.4-2.4c0.1,0,0.2,0,0.3,0l1.6,3.9c-0.4,0.6-1.1,0.9-1.9,0.9
					C288.8,418.4,287.7,417.3,287.7,416z"/>
				<path class="st14" d="M277.7,392c0.9-1,2.2-1.4,3.2-1.6l5.1,12.3c-0.4,0.3-0.8,0.6-1.3,0.8c-2.5,0.9-5.3-0.3-6.2-2.9
					c-0.3-0.8-0.4-1.7-0.2-2.5c1.2,0.1,1.8,0,2.8-0.2L277.7,392z"/>
				<path class="st15" d="M253.6,357.2c0-5.2,4.2-9.4,9.5-9.4c0.1,0,0.1,0,0.2,0l6.6,16c0,0,0,0,0,0c-1.7,1.8-4.1,2.9-6.8,2.9
					C257.8,366.6,253.6,362.4,253.6,357.2z"/>
				<path class="st13" d="M243.1,371.5l1.8-4.3c1.1,0.2,2,1.2,2,2.4c0,1.3-1.1,2.4-2.4,2.4C244,371.9,243.5,371.7,243.1,371.5z"/>
				<path class="st13" d="M276.3,425.3c0-1.3,1.1-2.4,2.4-2.4s2.4,1.1,2.4,2.4c0,0.1,0,0.1,0,0.2c-1.5,0.4-3,0.7-4.5,1
					C276.5,426.2,276.3,425.8,276.3,425.3z"/>
				<path class="st15" d="M248.4,423.8c0-5.2,4.2-9.4,9.5-9.4c5.2,0,9.4,4.2,9.4,9.4c0,1.5-0.4,3-1,4.2c-2.5,0.2-5,0.3-7.5,0.3
					c-3.1,0-6.3-0.2-9.5-0.5C248.7,426.7,248.4,425.3,248.4,423.8z"/>
				<path class="st13" d="M228.1,422.9c0-1.3,1.1-2.4,2.4-2.4s2.4,1.1,2.4,2.4c0,0.6-0.3,1.2-0.7,1.7c-1.4-0.4-2.7-0.8-4.1-1.3
					C228.1,423.2,228.1,423.1,228.1,422.9z"/>
				<path class="st16" d="M215.1,424.5c0.9-2.2,3-3.6,5.3-3.6c0.7,0,1.4,0.1,2,0.4c0,0,0.1,0,0.1,0c1.9,0.7,3.8,1.4,5.6,2
					c1.4,0.5,2.8,0.9,4.1,1.3c5.7,1.6,11.4,2.7,17,3.3c3.2,0.3,6.3,0.5,9.5,0.5c2.5,0,5-0.1,7.5-0.3c3.5-0.3,7-0.8,10.4-1.5
					c1.5-0.3,3-0.6,4.5-1c4.2-1.1,8.4-2.5,12.5-4.2h0c0.7-0.3,1.4-0.4,2.2-0.4c2.2,0,4.3,1.3,5.2,3.5c1.2,2.9-0.2,6.2-3,7.4
					c-12.8,5.3-25.9,8-39.2,8c-13.3,0-26.8-2.6-40.5-7.9C215.4,430.7,213.9,427.4,215.1,424.5z"/>
				<path class="st14" d="M267.3,406.9c1.1-2.1,4-2.7,4-2.7c0.7,2,3.2,5.9,3.2,5.9c0.8-0.7,1.2-1.3,1.6-1.9c0.7,0.4,1.3,0.9,1.8,1.6
					c1.5,2.2,0.9,5.2-1.4,6.7c-2.2,1.5-5.2,0.9-6.7-1.4c-0.5-0.7-0.7-1.6-0.8-2.4c1.2-0.2,1.8-0.4,2.7-0.8L267.3,406.9z"/>
				<path class="st14" d="M238.4,407.4c0.8-0.4,1.6-0.6,2.5-0.6c0.1,1.2,0.2,1.8,0.6,2.7l5.4-3.9c2,1.4,2.3,4.3,2.3,4.3
					c-2.1,0.5-6.2,2.6-6.2,2.6c0.6,0.9,1.1,1.3,1.8,1.8c-0.4,0.7-1.1,1.2-1.8,1.6c-2.4,1.2-5.3,0.3-6.6-2
					C235.1,411.6,236.1,408.6,238.4,407.4z"/>
				<path class="st14" d="M252.2,379.1c-0.1-0.8,0-1.6,0.3-2.4c1-2.5,3.8-3.7,6.3-2.8c2.5,1,3.7,3.8,2.8,6.3c-0.3,0.8-0.8,1.5-1.5,2
					c-0.9-0.9-1.3-1.2-2.2-1.7l-1.5,6.5c-2.4,0.3-4.6-1.7-4.6-1.7c1.2-1.8,2.9-6.1,2.9-6.1C253.7,379,253,379,252.2,379.1z"/>
				<path class="st17" d="M254.9,399.7c0-1.3,1.1-2.4,2.4-2.4s2.4,1.1,2.4,2.4c0,1.3-1.1,2.4-2.4,2.4S254.9,401,254.9,399.7z"/>
				<path class="st13" d="M267.7,388.2c0-1.3,1.1-2.4,2.4-2.4c1.3,0,2.4,1.1,2.4,2.4s-1.1,2.4-2.4,2.4
					C268.8,390.6,267.7,389.5,267.7,388.2z"/>
				<path class="st13" d="M270.6,373.6c0-1.3,1-2.4,2.3-2.4l1.7,4.2c-0.4,0.4-1,0.6-1.6,0.6C271.7,376,270.6,374.9,270.6,373.6z"/>
				<g>
					<line class="st5" x1="261.9" y1="420.9" x2="261.9" y2="420.9"/>
					<line class="st5" x1="263" y1="425.3" x2="263" y2="425.3"/>
					<line class="st5" x1="257.4" y1="423.8" x2="257.4" y2="423.8"/>
					<line class="st5" x1="252.5" y1="420.9" x2="252.5" y2="420.9"/>
					<line class="st5" x1="252.5" y1="425.3" x2="252.5" y2="425.3"/>
					<line class="st5" x1="257.8" y1="418.4" x2="257.8" y2="418.4"/>
				</g>
				<g>
					<path class="st15" d="M232,398.4l7.2-17.5c3.6,1.4,6.1,4.8,6.1,8.8c0,5.2-4.2,9.4-9.4,9.4C234.4,399.2,233.2,398.9,232,398.4z"
						/>
					<line class="st5" x1="239.9" y1="386.8" x2="239.9" y2="386.8"/>
					<line class="st5" x1="237.4" y1="394.6" x2="237.4" y2="394.6"/>
					<line class="st5" x1="241" y1="391.3" x2="241" y2="391.3"/>
				</g>
				<g>
					<line class="st5" x1="264.6" y1="362" x2="264.6" y2="362"/>
					<line class="st5" x1="262.6" y1="357.2" x2="262.6" y2="357.2"/>
					<line class="st5" x1="257.8" y1="354.3" x2="257.8" y2="354.3"/>
					<line class="st5" x1="257.8" y1="358.7" x2="257.8" y2="358.7"/>
					<line class="st5" x1="263" y1="351.8" x2="263" y2="351.8"/>
				</g>
			</g>
			<g>
				<g>
					<path class="st15" d="M154.2,410.6c-3.1-0.5-6.3-1-9.5-1.7l-12.2-64.5l6.6-0.5l4.6-0.3L154.2,410.6z"/>
					<path class="st9" d="M164.7,411.7c-3.5-0.2-7-0.5-10.5-1l-10.6-67l3.9-0.3l4.3-0.3c0,0-0.1,8,3.5,14.8l0,0
						c0.8,1.5,1.8,3,3.1,4.3c0.9,1,2,1.9,3.2,2.6v0L164.7,411.7z"/>
					<path class="st15" d="M181.2,363.1l-3.7,48.5c-4.2,0.2-8.5,0.2-12.8,0l-3.1-46.9c1.2,0.7,2.6,1.3,4.1,1.7
						c0.1,0,0.2,0.1,0.3,0.1c1.2,0.3,2.6,0.5,4.1,0.5c0.7,0,1.4,0,2.1-0.1c0.6,0,1.3-0.1,1.9-0.3c1.1-0.2,2.2-0.6,3.1-1
						c1.2-0.5,2.3-1.2,3.3-2C180.8,363.5,181,363.3,181.2,363.1z"/>
					<path class="st15" d="M208.6,344.4l-12.2,64.5c-3.5,0.8-7.1,1.5-10.6,2l10.5-67.3l7.1,0.5L208.6,344.4z"/>
					<path class="st9" d="M196.3,343.5l-10.5,67.3c-0.2,0-0.3,0-0.5,0.1c-2.6,0.3-5.2,0.6-7.8,0.7l3.7-48.5c1.9-1.7,3.4-3.9,4.6-6.1
						c0.4-0.8,0.8-1.6,1.1-2.5c2.3-5.8,2.4-11.5,2.4-11.5l5.6,0.4l0.2,0L196.3,343.5z"/>
					<polygon class="st7" points="147.5,343.4 143.6,343.6 139.1,344 137.4,326.1 141.9,325.7 145.7,325.3 					"/>
					<path class="st18" d="M174.1,366.6c-0.6,0.1-1.2,0.2-1.9,0.3c-0.7,0.1-1.4,0.1-2.1,0.1c-1.5,0-2.8-0.2-4.1-0.5
						c-0.1,0-0.2,0-0.3-0.1l-2.5-41.1l3.2-0.1l4.7-0.1l0.2,0L174.1,366.6z"/>
					<path class="st7" d="M196.6,310.4l-1.8,33.1l-5.6-0.4c0,0-0.2,5.7-2.4,11.5l0.6-27.7v0l0.6-17.2L196.6,310.4z"/>
					<polygon class="st18" points="204.5,321.4 203.3,344.1 196.3,343.5 195.1,343.5 196.4,320.7 					"/>
					<path class="st7" d="M180.6,363.6c-1,0.8-2.1,1.5-3.3,2c-1,0.4-2,0.8-3.1,1l-2.7-41.6l-0.2,0l-0.3-10.2l-0.1-5.6l3.1-0.1
						l4.7-0.1L180.6,363.6z"/>
					<path class="st18" d="M188.1,300.8l-0.6,26.1v0l-0.6,27.7c-0.3,0.8-0.7,1.7-1.1,2.5c-1.1,2.2-2.6,4.4-4.6,6.1
						c-0.2,0.2-0.4,0.4-0.6,0.5l-2-54.6l0.1-6.2l0.1-2.3L188.1,300.8z"/>
					<path class="st7" d="M161.6,364.8L161.6,364.8c-1.2-0.7-2.3-1.6-3.2-2.6l-4.8-49l-1.3,0.1l-0.4-5.4l-0.1-2l10.1-0.7l0.1,1.6
						l1.3,18.5l2.5,41.1C164.2,366.1,162.8,365.5,161.6,364.8z"/>
					<path class="st18" d="M155.3,357.9L155.3,357.9c-3.6-6.8-3.5-14.8-3.5-14.8l-4.3,0.3l-1.8-18.1l-3.9,0.4l-1.1-11.3l4.4-0.4
						l7.1-0.7l1.3-0.1l4.8,49C157.1,360.9,156.1,359.4,155.3,357.9z"/>
				</g>
				<polygon class="st7" points="171.1,325.1 166.4,325.2 166.4,314.9 170.9,314.9 				"/>
				<polygon class="st19" points="178.7,302.8 178.6,309.1 173.9,309.2 173.4,302.8 				"/>
				<polygon class="st19" points="152.2,313.3 145.2,314 144.9,308 151.9,307.9 				"/>
				<polygon class="st19" points="168.2,314.9 166.4,314.9 166.4,325.2 163.2,325.3 162,306.8 167.7,306.8 				"/>
			</g>
			<g>
				<g>
					<path class="st20" d="M406.4,158.9l-10.1,51.5c-2.7,0.5-5.4,1-8,1.3l8-44.2l4.6-3.9L406.4,158.9z"/>
					<path class="st7" d="M396.2,167.6l-8,44.2c-2.6,0.4-5.3,0.7-8,1l5.7-53.9L396.2,167.6z"/>
					<path class="st20" d="M386,158.9l-5.7,53.9c-2.3,0.2-4.5,0.4-6.8,0.5l2.3-45.7L386,158.9z"/>
					<path class="st7" d="M375.8,167.6l-2.3,45.7c-2.6,0.2-5.2,0.2-7.9,0.3v-54.7l3.5,3l3.8,3.2L375.8,167.6z"/>
					<path class="st20" d="M365.6,158.9v54.6c-2.7,0-5.3,0-8-0.2l-2.2-45.8l2.6-2.2h0l7.2-6.1L365.6,158.9z"/>
					<path class="st7" d="M357.6,213.4c-2.5-0.1-4.9-0.3-7.4-0.5l-5.1-54l10.2,8.7L357.6,213.4z"/>
					<path class="st20" d="M350.3,212.9c-2.8-0.3-5.5-0.6-8.3-1.1l-6.4-40.1l0,0l-0.6-4.1l10.2-8.7L350.3,212.9z"/>
					<path class="st7" d="M342,211.8c-2.4-0.4-4.7-0.8-7.1-1.3l-10.1-51.5l8.5,7.3l1.7,1.4l0.6,4.1l0,0L342,211.8z"/>
					<line class="st5" x1="365.6" y1="213.6" x2="365.6" y2="213.6"/>
					<line class="st5" x1="357.6" y1="213.4" x2="357.6" y2="213.4"/>
				</g>
				<g>
					<g>
						<path class="st21" d="M400.8,163.6l-4.6,3.9l-10.2-8.7l-10.2,8.7l-2.9-2.4l-3.8-3.2l-3.5-3l-0.4,0.4c0.1-1.4,0.4-3,1-4.6
							c0.8-2.6,2.2-5.3,4.1-8.2c2.8-4,7.1-6.4,11.8-8.3c6.9-2.7,14.6-4.2,18.9-7.6c0.2-0.1,0.4-0.4,0.6-0.6c0,0.1-0.1,0.6,0.1,1.5
							c0.2,1.1,0.9,2.7,2.5,5C403.5,144.6,407.7,152.1,400.8,163.6z"/>
						<path class="st5" d="M405.8,131c-0.5,0.9-1,1.7-1.1,2.2c-0.3,1.1-0.5,2.3-0.6,3.4c-1.6-2.3-2.2-3.9-2.5-5
							C401.7,131.6,404.9,131.9,405.8,131z"/>
						<path class="st22" d="M414.7,126.2c-1.7,4.5-6.6,1.4-6.6,1.4s-1.3,1.7-2.3,3.4c-0.9,0.9-4.1,0.6-4.1,0.6
							c-0.2-1-0.1-1.4-0.1-1.5c0,0,0,0,0,0c1.2-1.6,2.7-4.8,2.7-4.8s-5.2-3-1.9-6.6c1.9-2,4-0.1,4.9,1.6c0.9,1.4,0.9,1.8,2.5,1.9
							C411.7,122.2,416.1,122.2,414.7,126.2z"/>
						<path class="st5" d="M404.2,136.7c0,0,0-0.1-0.1-0.1"/>
					</g>
					<g>
						<path class="st5" d="M339.5,144.8c-1.8,0.5-3.4,0.9-4.6,1.1c0.3-1.1,0.5-2.3,0.7-3.3c0.3,0.3,0.6,0.6,0.9,0.8
							C337.4,144,338.5,144.4,339.5,144.8z"/>
						<path class="st22" d="M335.6,142.6c-0.2,1-0.4,2.2-0.7,3.3c-0.6,0.1-1.2,0.2-1.7,0.3c0,0,0,0,0-0.1c-0.1-0.2-0.2-0.4-0.4-0.7
							l0,0c-1.1-1.5-3.6-3.7-3.6-3.7s-4.6,5.6-7,1.7c-1.4-2.3,0.1-4.1,2-4.4c1.6-0.4,4-2.5,4.6-4c0.5-1.8,1.7-5.8,4.9-3.4
							c3.7,2.7-1.3,7.3-1.3,7.3s1.2,1.6,2.5,3C335,142.1,335.3,142.4,335.6,142.6z"/>
						<path class="st6" d="M366.1,154.7c-0.5,1.6-0.8,3.1-1,4.6l-7.2,6.1h0l-2.6,2.2l-10.2-8.7l-10.2,8.7l-1.7-1.4
							c-1.1-5.7,1.2-11.4,0.7-16.6c0,0,0,0,0,0c-0.1-1.1-0.3-2.3-0.8-3.4c0.5-0.1,1-0.1,1.7-0.3c1.3-0.2,2.9-0.6,4.6-1.1
							c2,0.6,4.2,0.9,6.5,1c6,0.5,12.7,0.6,19.1,7.6C365.5,153.8,365.8,154.2,366.1,154.7z"/>
					</g>
					<path class="st6" d="M382.1,138.3c-4.7,1.9-9.1,4.3-11.8,8.3c-2,2.9-3.3,5.6-4.1,8.2c-0.3-0.4-0.7-0.9-1-1.3
						c-6.4-7-13-7.1-19.1-7.6c0.9-9.8,9.1-17.5,19.2-17.5C372.5,128.2,378.8,132.3,382.1,138.3z"/>
				</g>
			</g>
			<g>
				<g>
					<path class="st23" d="M86.4,287l-1.8,2.7l0,0l-2.5,3.9l-7.8-5.1l-0.3-1.2l-0.4-1.6C77.8,286.3,82.1,286.8,86.4,287z"/>
					<polygon class="st16" points="82.1,293.6 77.6,300.5 74.3,288.5 					"/>
					<polygon class="st23" points="91.7,299.8 85.6,309 78.6,304.4 78.6,304.4 77.6,300.5 82.1,293.6 					"/>
					<polygon class="st23" points="101.5,293.2 101.5,305.5 101.2,306.1 91.7,299.8 97.7,290.6 					"/>
					<polygon class="st23" points="118.4,304.2 115.3,315.3 110.7,312.3 116.7,303.1 					"/>
					<polygon class="st16" points="115.3,315.3 112.3,326.5 104.7,321.5 110.7,312.3 					"/>
					<polygon class="st17" points="101.5,306.3 101.2,306.1 101.5,305.5 					"/>
					<polygon class="st23" points="95.1,315.2 89.1,324.4 83,320.4 81.6,315.2 81.6,315.2 85.6,309 					"/>
					<polygon class="st16" points="85.6,309 81.6,315.2 78.6,304.4 					"/>
					<polygon class="st23" points="112.3,326.5 110.4,333.5 110.4,333.5 108.2,336.9 98.7,330.7 104.7,321.5 					"/>
					<polygon class="st23" points="98.7,330.7 92.6,339.9 87.3,336.4 87.3,336.4 85.6,329.9 89.1,324.4 					"/>
					<polygon class="st16" points="89.1,324.4 85.6,329.9 83,320.4 					"/>
					<polygon class="st23" points="109.3,337.6 106.3,348.8 102.2,346.1 108.2,336.9 					"/>
					<polygon class="st23" points="102.2,346.1 96.1,355.3 91.6,352.3 91.6,352.3 89.5,344.6 92.6,339.9 					"/>
					<polygon class="st16" points="92.6,339.9 89.5,344.6 87.3,336.4 					"/>
					<path class="st16" d="M106.3,348.8l-2.2,8.3c0,0-0.3,1.3-0.9,2.8l-6.9-4.5l6-9.2L106.3,348.8z"/>
					<path class="st16" d="M96.1,355.3l-2.5,3.8c-0.5-1.1-0.7-2-0.7-2l-1.3-4.7L96.1,355.3z"/>
					<path class="st23" d="M103.1,359.8c-0.8,1.8-2.3,3.9-4.6,3.9c-2.4,0-4-2.7-4.8-4.6l2.5-3.8L103.1,359.8z"/>
					<polygon class="st17" points="110.4,333.5 109.3,337.6 108.2,336.9 					"/>
					<path class="st24" d="M119.6,299.5l-1.3,4.7l-1.7-1.1l2.3-3.5C119.2,299.5,119.4,299.5,119.6,299.5z"/>
					<path class="st17" d="M123.4,285.7l-0.4,1.5v-1.5C123.1,285.7,123.2,285.7,123.4,285.7z"/>
					
						<rect x="91.4" y="317.3" transform="matrix(0.5477 -0.8367 0.8367 0.5477 -226.3706 227.1546)" class="st25" width="11" height="11.4"/>
					
						<rect x="87.9" y="301.9" transform="matrix(0.5481 -0.8364 0.8364 0.5481 -215.0369 217.0966)" class="st26" width="11" height="11.4"/>
					<path class="st16" d="M97.7,290.6l-6,9.2l-9.5-6.2l2.5-3.9l0,0l1.8-2.7c0.3,0,0.5,0,0.8,0c1.8,0.1,3.7,0.2,5.5,0.3h0
						L97.7,290.6z"/>
					<path class="st23" d="M101.5,292.1v1l-3.9-2.5l-5-3.3c1,0,1.9,0.1,2.9,0.1h0c1.6,0.1,2.7,0.4,3.6,0.9
						C100.9,289.4,101.4,291.1,101.5,292.1z"/>
					<path class="st23" d="M110.7,312.3l-6,9.2l-9.5-6.2l6-9.2l0.4,0.2v1.3c0,2.2,1.8,4,4.1,4c1,0,1.9-0.4,2.6-1L110.7,312.3z"/>
					<path class="st23" d="M119,299.5l-2.3,3.5l-7.1-4.6v-6.7c0-1.5,1.2-2.6,2.6-2.6h0c1.4,0,2.6,1.2,2.6,2.6v3.7
						C114.9,297.7,116.7,299.5,119,299.5L119,299.5L119,299.5z"/>
					<path class="st16" d="M116.7,303.1l-6,9.2l-2.5-1.6c0.9-0.7,1.4-1.9,1.4-3.1v-9.1L116.7,303.1z"/>
					<polygon class="st16" points="108.2,336.9 102.2,346.1 92.6,339.9 98.7,330.7 					"/>
				</g>
				<path class="st17" d="M115.5,286.6c-0.1,0.1-0.1,0.1-0.1,0.2"/>
				<path class="st24" d="M86.4,287c-4.3-0.3-8.6-0.8-12.9-1.4l0.4,1.6c-2.7-2.2-4.5-5.7-4.5-9.5c0-5.8,4.1-10.7,9.6-12
					c0.9-0.2,1.8-0.3,2.7-0.3c1.5,0,2.9,0.3,4.3,0.8c-1.8,2.8-2.8,6-2.8,9.6c0,0.3,0,0.6,0,0.8l0,0c0.2,3.9,1.6,7.5,3.9,10.3
					C86.9,287.1,86.7,287.1,86.4,287z"/>
				<path class="st27" d="M119,275.9c0,4-1.3,7.7-3.6,10.7c-0.6,0.1-1.1,0.1-1.7,0.2c-0.5,0-1.1,0.1-1.6,0.1
					c-3.6,0.3-7.1,0.5-10.7,0.5c-0.6,0-1.2,0-1.8,0c-1.4,0-2.8,0-4.2,0h0c-1,0-1.9,0-2.9-0.1h0c-1.8-0.1-3.7-0.1-5.5-0.3
					c-2.3-2.9-3.7-6.4-3.9-10.3l0,0c0-0.3,0-0.6,0-0.8c0-3.5,1-6.8,2.8-9.6c3.2-5,8.8-8.3,15.1-8.3c0.3,0,0.6,0,0.9,0
					c0,0,0.1,0,0.3,0c0,0,0.1,0,0.1,0c1.2,0.1,4.3,0.9,4.3,4.6v9.8c0,1.5,1.2,2.7,2.7,2.7c1.5,0,2.7-1.2,2.7-2.7l-0.1-5
					c0,0-0.2-3.8,3-2.6c1.1,1.4,1.9,2.9,2.6,4.5c0,0,0,0,0,0C118.6,271.4,119,273.6,119,275.9z"/>
				<path class="st24" d="M115.2,264.9c-3.2-1.2-3,2.6-3,2.6l0.1,5c0,1.5-1.2,2.7-2.7,2.7s-2.7-1.2-2.7-2.7v-9.8
					c0-3.8-3.1-4.5-4.3-4.6c3.3,0.2,6.3,1.4,8.8,3.1C112.8,262.2,114.1,263.5,115.2,264.9z"/>
				<path class="st16" d="M129.6,273.5c0,4.9-2.7,9.2-6.6,11.5c-0.7,0.4-1.3,0.7-2.1,1c-1.8,0.2-3.6,0.4-5.4,0.6
					c2.2-3,3.6-6.7,3.6-10.7c0-2.3-0.4-4.5-1.2-6.5c0,0,0,0,0,0c-0.6-1.6-1.5-3.2-2.6-4.5c-1.1-1.4-2.4-2.6-3.9-3.7
					c1.5-0.6,3.2-1,5-1c0.6,0,1.1,0,1.7,0.1C124.5,261.2,129.6,266.8,129.6,273.5z"/>
				<path class="st15" d="M118,260.4c-0.6-0.1-1.1-0.1-1.7-0.1c-1.8,0-3.4,0.3-5,1c-2.5-1.8-5.6-2.9-8.8-3.1c-0.1,0-0.1,0-0.1,0
					c-0.2,0-0.3,0-0.3,0c-0.3,0-0.6,0-0.9,0c-6.4,0-11.9,3.3-15.1,8.3c-1.3-0.5-2.8-0.8-4.3-0.8c-0.9,0-1.8,0.1-2.7,0.3
					c0-0.4-0.1-0.9-0.1-1.3c0-10.9,8.8-19.7,19.7-19.7C108.2,244.8,116.1,251.5,118,260.4z"/>
				<path class="st27" d="M123,285.8v1.5l-1.6,5.7l-1.4,5v0l-0.4,1.5c-0.2,0-0.4,0.1-0.6,0.1h-0.1c-2.2,0-4.1-1.8-4.1-4v-3.7
					c0-1.5-1.2-2.6-2.6-2.6h0c-1.4,0-2.6,1.2-2.6,2.6v15.8c0,1.2-0.6,2.4-1.4,3.1c-0.7,0.6-1.6,1-2.6,1c-2.2,0-4.1-1.8-4.1-4v-14.4
					c0,0,0.1-0.4,0-1c-0.1-1.1-0.6-2.8-2.4-3.8c-0.9-0.5-2-0.9-3.6-0.9c1.4,0,2.8,0,4.2,0c0.6,0,1.2,0,1.8,0
					c3.6-0.1,7.1-0.2,10.7-0.5c0.5,0,1.1-0.1,1.6-0.1c0.6,0,1.1-0.1,1.7-0.2c1.8-0.2,3.6-0.4,5.4-0.6
					C121.6,285.9,122.3,285.8,123,285.8z"/>
				<path class="st17" d="M101.5,293.2v-1C101.6,292.7,101.5,293.2,101.5,293.2z"/>
				<line class="st17" x1="123" y1="285.8" x2="123" y2="285"/>
			</g>
			<g>
				<g>
					<g>
						<path class="st20" d="M270.1,198.9H250c-5.9,0-11-3.6-13.1-8.8c0,0,0,0,0,0c-0.5-1.2-0.9-2.6-1-3.9c-0.1-0.5-0.1-1-0.1-1.5
							c0-0.7,0.1-1.4,0.1-2.1c0.2-1.2,0.5-2.3,0.9-3.3c0,0,0,0,0-0.1c2.1-5.1,7.2-8.8,13.1-8.8h20.1c1,0,1.7,0.8,1.7,1.7
							c0,0.9-0.8,1.7-1.7,1.7H250c-3.5,0-6.6,1.7-8.6,4.3h24c1,0,1.7,0.8,1.7,1.7c0,0.9-0.8,1.7-1.7,1.7h-25.8c-0.3,1-0.4,2-0.4,3.1
							s0.2,2.1,0.4,3.1h25.8c1,0,1.7,0.8,1.7,1.7c0,0.9-0.8,1.7-1.7,1.7h-24c2,2.6,5.1,4.3,8.6,4.3h20.1c1,0,1.7,0.8,1.7,1.7
							C271.9,198.1,271.1,198.9,270.1,198.9z"/>
					</g>
					<g>
						<path class="st20" d="M176.6,193.8c-5.1,0-9.1-4.1-9.1-9.1c0-5.1,4.1-9.1,9.1-9.1c2.4,0,4.6,0.9,6.2,2.4
							c0.3,0.2,0.5,0.5,0.8,0.8c5.2,4.3,11.2,3.9,11.2,3.9h41.2c-0.1,0.7-0.1,1.4-0.1,2.1c0,0.5,0,1,0.1,1.5h-41.1
							c0,0-7.4,0-11.2,4.5C181.8,192.6,179.4,193.8,176.6,193.8z"/>
					</g>
				</g>
				<g>
					<path class="st6" d="M262.1,156.4c0-1.6,0.4-3.1,1.4-4.5c2.5-3.8,7.6-4.8,11.4-2.3c7.7,5.1,13.6,15.6,15.4,27.3
						c2.2,14.3-1.9,28.9-11.7,41.1c-2.8,3.5-8,4.1-11.5,1.3c-3.5-2.8-4.1-8-1.3-11.6c8.8-10.9,9.4-21.4,8.3-28.3
						c-1.4-8.7-5.7-14.4-8.3-16.1C263.3,161.7,262.1,159.1,262.1,156.4z"/>
					<path class="st5" d="M289,171.4c0,0-5.1,0-7.6,2.4"/>
					<path class="st5" d="M289,197.7c0,0-3.7,0.1-6.6-1.6"/>
					<path class="st5" d="M283.8,210.3c0,0-3.3-0.3-6.6-2.3"/>
					<path class="st5" d="M283.2,158.2c0,0-5.6-0.1-7.3,2.8"/>
					<line class="st5" x1="290.8" y1="184.6" x2="284.6" y2="184.6"/>
				</g>
				<g>
					<g>
						<path class="st5" d="M309.6,157c-3.4,0-3.4-2.9-6.9-2.9c-3.4,0-3.4,2.9-6.9,2.9s-3.4-2.9-6.9-2.9"/>
					</g>
					<g>
						<path class="st5" d="M316,176.8c-3.4,0-3.4-2.9-6.9-2.9s-3.4,2.9-6.9,2.9s-3.4-2.9-6.9-2.9"/>
					</g>
					<g>
						<path class="st5" d="M316,197.6c-3.4,0-3.4-2.9-6.9-2.9s-3.4,2.9-6.9,2.9s-3.4-2.9-6.9-2.9"/>
					</g>
					<g>
						<path class="st5" d="M311,215.2c-3.4,0-3.4-2.9-6.9-2.9c-3.4,0-3.4,2.9-6.9,2.9s-3.4-2.9-6.9-2.9"/>
					</g>
				</g>
			</g>
			<g>
				<rect x="315.6" y="319.6" class="st21" width="64.6" height="10.1"/>
				<path class="st8" d="M366.2,392.5l-1.8,14.3c-2.9,0.7-5.7,1.2-8.5,1.5c-10.7-3.5-19.4-7.8-26.5-12.2l-3.3-25.6
					C334.5,377.9,347.3,386.5,366.2,392.5z"/>
				<path class="st4" d="M367.9,379.3l-1.7,13.2c-18.9-6-31.7-14.6-40.1-22l0,0l-2.4-18.5C332.6,361,346.5,371.5,367.9,379.3z"/>
				<path class="st8" d="M370.2,360.7l-2.4,18.6c-21.4-7.8-35.3-18.2-44.2-27.3l-2.9-22.3h7.6C335.5,338.8,348.3,351.1,370.2,360.7z
					"/>
				<path class="st4" d="M371.9,348.2l-1.6,12.5c-22-9.6-34.8-22-41.8-31h16C350.9,335.8,359.8,342.4,371.9,348.2z"/>
				<path class="st8" d="M374.2,329.7l-2.4,18.5c-12-5.8-20.9-12.4-27.4-18.5H374.2z"/>
				<path class="st11" d="M374.2,319.6h-54.7c0-8.1,6.6-14.7,14.7-14.7h25.3C367.6,304.9,374.2,311.5,374.2,319.6z"/>
				<path class="st8" d="M364.4,287.2c-0.3,1.4-1.7,2.2-3,1.8l-11.9-3v18.8h-5v-22c0-0.8,0.4-1.5,1-2s1.4-0.6,2.1-0.5l15,3.7
					C363.9,284.5,364.7,285.9,364.4,287.2z"/>
				<g>
					<path class="st4" d="M355.8,408.3c-8.4,1-16.7,0.6-25.1-1.5l-1.4-10.7C336.4,400.5,345.1,404.8,355.8,408.3z"/>
				</g>
			</g>
			<g>
				<g>
					<path class="st6" d="M236.7,334.6c-1.6,0-3.1-0.5-4.5-1.4c-3.8-2.5-4.8-7.6-2.3-11.4c5.1-7.7,15.6-13.6,27.3-15.4
						c14.3-2.2,28.9,1.9,41.1,11.7c3.5,2.8,4.1,8,1.3,11.5c-2.8,3.5-8,4.1-11.5,1.3c-10.9-8.8-21.4-9.4-28.3-8.3
						c-8.7,1.4-14.4,5.7-16.1,8.3C242,333.4,239.4,334.6,236.7,334.6z"/>
					<path class="st5" d="M251.6,307.6c0,0,0,5.1,2.4,7.6"/>
					<path class="st5" d="M277.9,307.6c0,0,0.1,3.7-1.6,6.6"/>
					<path class="st5" d="M290.6,312.9c0,0-0.3,3.3-2.3,6.6"/>
					<path class="st5" d="M238.5,313.5c0,0-0.1,5.6,2.8,7.3"/>
					<line class="st5" x1="264.9" y1="305.9" x2="264.9" y2="312.1"/>
				</g>
				<g>
					<g>
						<path class="st5" d="M237.2,287.1c0,3.4-2.9,3.4-2.9,6.9c0,3.4,2.9,3.4,2.9,6.9s-2.9,3.4-2.9,6.9"/>
					</g>
					<g>
						<path class="st5" d="M257,280.8c0,3.4-2.9,3.4-2.9,6.9s2.9,3.4,2.9,6.9s-2.9,3.4-2.9,6.9"/>
					</g>
					<g>
						<path class="st5" d="M277.9,280.8c0,3.4-2.9,3.4-2.9,6.9s2.9,3.4,2.9,6.9s-2.9,3.4-2.9,6.9"/>
					</g>
					<g>
						<path class="st5" d="M295.5,285.7c0,3.4-2.9,3.4-2.9,6.9c0,3.4,2.9,3.4,2.9,6.9s-2.9,3.4-2.9,6.9"/>
					</g>
				</g>
			</g>
		</g>
		<g>
			<g>
				<line class="st5" x1="147.1" y1="91.3" x2="147.1" y2="104.5"/>
				<line class="st5" x1="140.5" y1="97.9" x2="153.7" y2="97.9"/>
			</g>
			<g>
				<line class="st5" x1="365.6" y1="117.5" x2="374.9" y2="108.2"/>
				<line class="st5" x1="374.9" y1="117.5" x2="365.6" y2="108.2"/>
			</g>
			<g>
				<line class="st5" x1="223.5" y1="357.6" x2="232.8" y2="348.3"/>
				<line class="st5" x1="232.8" y1="357.6" x2="223.5" y2="348.3"/>
			</g>
			<g>
				<line class="st5" x1="274.6" y1="62.3" x2="274.6" y2="72.9"/>
				<line class="st5" x1="269.3" y1="67.6" x2="279.9" y2="67.6"/>
			</g>
			<g>
				<line class="st5" x1="319.5" y1="285.3" x2="319.5" y2="295.9"/>
				<line class="st5" x1="314.2" y1="290.6" x2="324.8" y2="290.6"/>
			</g>
			<g>
				<line class="st5" x1="216" y1="384.1" x2="216" y2="394.7"/>
				<line class="st5" x1="210.7" y1="389.4" x2="221.3" y2="389.4"/>
			</g>
			<g>
				<line class="st5" x1="421.1" y1="182.5" x2="421.1" y2="197.7"/>
				<line class="st5" x1="413.6" y1="190.1" x2="428.8" y2="190.1"/>
			</g>
			<g>
				<line class="st5" x1="182.4" y1="205" x2="182.4" y2="215.6"/>
				<line class="st5" x1="177.1" y1="210.3" x2="187.7" y2="210.3"/>
			</g>
			<g>
				<line class="st5" x1="144.9" y1="283.1" x2="144.9" y2="293.8"/>
				<line class="st5" x1="139.6" y1="288.5" x2="150.2" y2="288.5"/>
			</g>
			<g>
				<path class="st5" d="M111.9,120.4c0,0,5.7,0,6.6-6.6"/>
				<path class="st5" d="M125.1,120.4c0,0-5.7,0-6.6-6.6"/>
				<path class="st5" d="M111.9,120.4c0,0,5.7,0,6.6,6.6"/>
				<path class="st5" d="M125.1,120.4c0,0-5.7,0-6.6,6.6"/>
			</g>
			<g>
				<path class="st5" d="M110,377.4c0,0,5.7,0,6.6-6.6"/>
				<path class="st5" d="M123.1,377.4c0,0-5.7,0-6.6-6.6"/>
				<path class="st5" d="M110,377.4c0,0,5.7,0,6.6,6.6"/>
				<path class="st5" d="M123.1,377.4c0,0-5.7,0-6.6,6.6"/>
			</g>
			<g>
				<path class="st5" d="M247.2,134.4c0,0,5.7,0,6.6-6.6"/>
				<path class="st5" d="M260.4,134.4c0,0-5.7,0-6.6-6.6"/>
				<path class="st5" d="M247.2,134.4c0,0,5.7,0,6.6,6.6"/>
				<path class="st5" d="M260.4,134.4c0,0-5.7,0-6.6,6.6"/>
			</g>
			<g>
				<path class="st5" d="M299.1,397.3c0,0,5.7,0,6.6-6.6"/>
				<path class="st5" d="M312.2,397.3c0,0-5.7,0-6.6-6.6"/>
				<path class="st5" d="M299.1,397.3c0,0,5.7,0,6.6,6.6"/>
				<path class="st5" d="M312.2,397.3c0,0-5.7,0-6.6,6.6"/>
			</g>
			<g>
				<path class="st5" d="M199.9,292.6c0,0,5.7,0,6.6-6.6"/>
				<path class="st5" d="M213,292.6c0,0-5.7,0-6.6-6.6"/>
				<path class="st5" d="M199.9,292.6c0,0,5.7,0,6.6,6.6"/>
				<path class="st5" d="M213,292.6c0,0-5.7,0-6.6,6.6"/>
			</g>
			<path class="st5" d="M154.5,128.9c0,4.1-3.3,7.4-7.4,7.4c-4.1,0-7.4-3.3-7.4-7.4s3.3-7.4,7.4-7.4
				C151.2,121.5,154.5,124.8,154.5,128.9z"/>
			<path class="st5" d="M408.7,353c0,4.1-3.3,7.4-7.4,7.4c-4.1,0-7.4-3.3-7.4-7.4c0-4.1,3.3-7.4,7.4-7.4
				C405.4,345.6,408.7,348.9,408.7,353z"/>
			<path class="st5" d="M229.8,211.8c0,4.1-3.3,7.4-7.4,7.4c-4.1,0-7.4-3.3-7.4-7.4s3.3-7.4,7.4-7.4
				C226.5,204.4,229.8,207.7,229.8,211.8z"/>
			<path class="st5" d="M304.4,358.7c0,4.1-3.3,7.4-7.4,7.4c-4.1,0-7.4-3.3-7.4-7.4c0-4.1,3.3-7.4,7.4-7.4
				C301.1,351.3,304.4,354.6,304.4,358.7z"/>
			<path class="st5" d="M76.9,230.1c0,4.1-3.3,7.4-7.4,7.4c-4.1,0-7.4-3.3-7.4-7.4s3.3-7.4,7.4-7.4C73.6,222.7,76.9,226,76.9,230.1z
				"/>
			<path class="st5" d="M248.7,66.4c0,3-2.4,5.4-5.4,5.4c-3,0-5.4-2.4-5.4-5.4c0-3,2.4-5.4,5.4-5.4
				C246.3,60.9,248.7,63.3,248.7,66.4z"/>
			<path class="st5" d="M381.2,233.3c0,3-2.4,5.4-5.4,5.4c-3,0-5.4-2.4-5.4-5.4c0-3,2.4-5.4,5.4-5.4
				C378.8,227.8,381.2,230.3,381.2,233.3z"/>
		</g>
	</g>
</g>
</svg>
